<?xml version="1.0" encoding="UTF-8" standalone="no"?>
<!-- Created with Inkscape (http://www.inkscape.org/) -->

<svg
   xmlns:dc="http://purl.org/dc/elements/1.1/"
   xmlns:cc="http://creativecommons.org/ns#"
   xmlns:rdf="http://www.w3.org/1999/02/22-rdf-syntax-ns#"
   xmlns:svg="http://www.w3.org/2000/svg"
   xmlns="http://www.w3.org/2000/svg"
   xmlns:sodipodi="http://sodipodi.sourceforge.net/DTD/sodipodi-0.dtd"
   xmlns:inkscape="http://www.inkscape.org/namespaces/inkscape"
   version="1.1"
   id="svg23288"
   xml:space="preserve"
   width="800"
   height="800"
   viewBox="0 0 800 800"
   sodipodi:docname="exercise-fitness-silhouette-pdv.svg"
   inkscape:version="0.92.4 (5da689c313, 2019-01-14)"><metadata
     id="metadata23294"><rdf:RDF><cc:Work
         rdf:about=""><dc:format>image/svg+xml</dc:format><dc:type
           rdf:resource="http://purl.org/dc/dcmitype/StillImage" /><dc:title></dc:title></cc:Work></rdf:RDF></metadata><defs
     id="defs23292"><clipPath
       clipPathUnits="userSpaceOnUse"
       id="clipPath23304"><path
         d="M 0,600 H 600 V 0 H 0 Z"
         id="path23302"
         inkscape:connector-curvature="0" /></clipPath></defs><sodipodi:namedview
     pagecolor="#ffffff"
     bordercolor="#666666"
     borderopacity="1"
     objecttolerance="10"
     gridtolerance="10"
     guidetolerance="10"
     inkscape:pageopacity="0"
     inkscape:pageshadow="2"
     inkscape:window-width="797"
     inkscape:window-height="480"
     id="namedview23290"
     showgrid="false"
     inkscape:zoom="0.295"
     inkscape:cx="400"
     inkscape:cy="400"
     inkscape:window-x="0"
     inkscape:window-y="0"
     inkscape:window-maximized="0"
     inkscape:current-layer="g23296" /><g
     id="g23296"
     inkscape:groupmode="layer"
     inkscape:label="exercise-fitness-silhouette-pdv"
     transform="matrix(1.3333333,0,0,-1.3333333,0,800)"><g
       id="g23298"><g
         id="g23300"
         clip-path="url(#clipPath23304)"><path
           d="m 174.93,571.132 c -1.613,2.289 -4.481,2.375 -4.481,2.375 0,0 -42.544,-20.937 -49.076,-20.937 -6.55,0 -3.945,14.387 -5.248,17.68 -1.302,3.257 -6.55,5.881 -11.128,5.229 -4.579,-0.669 1.971,-11.643 1.971,-18.33 0,-4.25 -1.747,-8.452 -3.897,-15.156 l 3.183,-19.006 z"
           style="fill:#c30000;fill-opacity:1;fill-rule:nonzero;stroke:none"
           id="path23306"
           inkscape:connector-curvature="0" /><path
           d="m 124.971,513.883 c -0.079,9.804 0.477,18.141 1.956,21.009 3.619,7.03 50.346,29.648 48.751,34.705 -0.187,0.599 -0.445,1.106 -0.748,1.535 l -68.676,-48.145 z"
           style="fill:#c80400;fill-opacity:1;fill-rule:nonzero;stroke:none"
           id="path23308"
           inkscape:connector-curvature="0" /><path
           d="m 271.647,507.403 c -1.966,0.425 -3.722,0.633 -5.138,0.726 l 3.483,-6.26 z"
           style="fill:#bf6b39;fill-opacity:1;fill-rule:nonzero;stroke:none"
           id="path23310"
           inkscape:connector-curvature="0" /><path
           d="m 576.529,26.063 c -0.341,1.916 -6.437,5.986 -14.697,10.332 l -1.789,-16.791 c 20.648,0.183 16.982,3.716 16.486,6.459"
           style="fill:#c20000;fill-opacity:1;fill-rule:nonzero;stroke:none"
           id="path23312"
           inkscape:connector-curvature="0" /><path
           d="m 286.88,499.898 c -0.409,0.31 -0.828,0.635 -1.254,0.974 -4.789,3.785 -9.847,5.638 -13.979,6.531 l -1.655,-5.534 z"
           style="fill:#6c7456;fill-opacity:1;fill-rule:nonzero;stroke:none"
           id="path23314"
           inkscape:connector-curvature="0" /><path
           d="m 266.509,508.129 c -2.27,0.152 -3.672,0.013 -3.672,0.013 0,0 -12.894,0.858 -23.011,-2.041 -4.801,-1.371 -16.427,-8.454 -24.23,-17.679 -0.198,-0.234 -0.386,-0.467 -0.578,-0.701 l 54.974,14.148 z"
           style="fill:#c66a08;fill-opacity:1;fill-rule:nonzero;stroke:none"
           id="path23316"
           inkscape:connector-curvature="0" /><path
           d="m 103.071,541.993 c -0.644,-2.007 -1.322,-4.235 -2.001,-6.758 0,0 -0.799,-2.69 -1.814,-7.352 l 6.998,-4.896 z"
           style="fill:#be0000;fill-opacity:1;fill-rule:nonzero;stroke:none"
           id="path23318"
           inkscape:connector-curvature="0" /><path
           d="m 106.254,522.987 -6.998,4.896 c -0.652,-2.994 -1.393,-6.8 -2.07,-11.234 z"
           style="fill:#c10000;fill-opacity:1;fill-rule:nonzero;stroke:none"
           id="path23320"
           inkscape:connector-curvature="0" /><path
           d="m 301.813,437.936 7.705,5.108 c 0.533,4.038 0.873,7.986 1.486,9.815 2.59,10.168 -2.727,29.802 -11.008,37.741 -3.063,3.063 -7.219,4.821 -13.116,9.298 l -16.888,1.971 z"
           style="fill:#81a55f;fill-opacity:1;fill-rule:nonzero;stroke:none"
           id="path23322"
           inkscape:connector-curvature="0" /><path
           d="m 134.316,416.24 14.713,16.879 c -5.971,8.384 -14.98,24.878 -19.803,38.294 -2.281,6.309 -4.125,26.369 -4.255,42.47 l -18.717,9.104 z"
           style="fill:#d70100;fill-opacity:1;fill-rule:nonzero;stroke:none"
           id="path23324"
           inkscape:connector-curvature="0" /><path
           d="m 106.254,522.987 -9.068,-6.338 c -0.918,-6.015 -1.718,-13.18 -2.016,-21.024 -0.856,-22.996 0.996,-36.644 4.597,-53.655 0.937,-4.439 2.341,-8.628 4.016,-12.52 l 30.533,-13.21 z"
           style="fill:#d50000;fill-opacity:1;fill-rule:nonzero;stroke:none"
           id="path23326"
           inkscape:connector-curvature="0" /><path
           d="m 269.992,501.869 -54.974,-14.148 c -3.522,-4.282 -6.06,-8.399 -7.825,-12.383 l 94.62,-37.402 z"
           style="fill:#bf9f1d;fill-opacity:1;fill-rule:nonzero;stroke:none"
           id="path23328"
           inkscape:connector-curvature="0" /><path
           d="m 103.783,429.45 c 2.512,-5.839 5.634,-11.007 8.714,-15.337 l 21.819,2.127 z"
           style="fill:#da0000;fill-opacity:1;fill-rule:nonzero;stroke:none"
           id="path23330"
           inkscape:connector-curvature="0" /><path
           d="m 207.193,475.338 c -3.701,-8.343 -4.037,-16.1 -3.033,-23.559 1.399,-10.569 8.816,-31.564 31.995,-43.305 l 65.658,29.462 z"
           style="fill:#dca000;fill-opacity:1;fill-rule:nonzero;stroke:none"
           id="path23332"
           inkscape:connector-curvature="0" /><path
           d="m 204.261,394.163 c -6.073,2.651 -11.533,5.127 -14.933,6.87 l -0.337,-13.722 z"
           style="fill:#dca000;fill-opacity:1;fill-rule:nonzero;stroke:none"
           id="path23334"
           inkscape:connector-curvature="0" /><path
           d="m 308.264,436.165 c 0.55,2.04 0.937,4.475 1.254,6.879 l -7.705,-5.108 z"
           style="fill:#2a7a74;fill-opacity:1;fill-rule:nonzero;stroke:none"
           id="path23336"
           inkscape:connector-curvature="0" /><path
           d="m 188.991,387.311 0.337,13.722 c -0.718,0.367 -1.35,0.704 -1.87,1.002 -9.157,5.247 -29.768,21.605 -35.015,26.852 -0.941,0.941 -2.105,2.392 -3.414,4.232 L 134.316,416.24 Z"
           style="fill:#e23e00;fill-opacity:1;fill-rule:nonzero;stroke:none"
           id="path23338"
           inkscape:connector-curvature="0" /><path
           d="m 560.043,19.604 1.789,16.791 c -2.76,1.451 -5.758,2.931 -8.867,4.373 l 0.303,-21.12 c 2.507,-0.05 4.757,-0.064 6.775,-0.044"
           style="fill:#c0682a;fill-opacity:1;fill-rule:nonzero;stroke:none"
           id="path23340"
           inkscape:connector-curvature="0" /><path
           d="m 320.039,336.107 -131.048,51.204 40.5,-84.183 z"
           style="fill:#eebe00;fill-opacity:1;fill-rule:nonzero;stroke:none"
           id="path23342"
           inkscape:connector-curvature="0" /><path
           d="m 486.021,352.565 22.094,18.247 c -10.447,7.23 -21.068,14.021 -25.656,16.167 -4.428,2.076 -13.816,6.521 -23.123,10.158 l 19.826,-39.655 c 1.803,-1.254 4.18,-2.964 6.859,-4.917"
           style="fill:#14666b;fill-opacity:1;fill-rule:nonzero;stroke:none"
           id="path23344"
           inkscape:connector-curvature="0" /><path
           d="m 303.855,426.521 c 0.784,1.72 1.504,3.54 3.188,6.447 0.484,0.853 0.883,1.951 1.221,3.197 l -6.451,1.771 z"
           style="fill:#88bc72;fill-opacity:1;fill-rule:nonzero;stroke:none"
           id="path23346"
           inkscape:connector-curvature="0" /><path
           d="m 379.619,409.977 c -0.588,-0.023 -1.164,-0.053 -1.723,-0.09 -11.386,-0.736 -49.728,-7.852 -54.974,-7.852 -3.455,0 -9.916,0.082 -14.844,0.894 l 11.961,-66.822 z"
           style="fill:#88bc72;fill-opacity:1;fill-rule:nonzero;stroke:none"
           id="path23348"
           inkscape:connector-curvature="0" /><path
           d="m 320.039,336.107 -11.961,66.822 c -2.533,0.417 -4.662,1.027 -5.767,1.918 -3.276,2.606 -2.092,15.329 -0.036,18.655 0.672,1.095 1.137,2.041 1.58,3.019 l -2.042,11.415 -65.658,-29.462 c 2.094,-1.06 4.313,-2.047 6.672,-2.942 10.888,-4.115 -4.322,-25.738 -4.322,-25.738 0,0 -19.032,7.729 -34.244,14.369 l -15.27,-6.852 z"
           style="fill:#c3bb0d;fill-opacity:1;fill-rule:nonzero;stroke:none"
           id="path23350"
           inkscape:connector-curvature="0" /><path
           d="m 476.082,359.508 c 0.563,-0.309 1.639,-1.023 3.08,-2.026 l -19.826,39.655 c -5.76,2.25 -11.486,4.191 -15.988,5.069 -5.569,1.081 -30.608,6.046 -50.741,7.459 l 62.659,-41.406 c 6.279,-1.816 13.177,-4.564 20.816,-8.751"
           style="fill:#147774;fill-opacity:1;fill-rule:nonzero;stroke:none"
           id="path23352"
           inkscape:connector-curvature="0" /><path
           d="m 375.289,362.767 c 10.289,6.208 29.906,10.478 42.371,9.5 9.861,-0.786 21.762,0.572 37.606,-4.008 l -62.659,41.406 c -3.421,0.24 -6.703,0.377 -9.722,0.376 l -9.869,-48.458 c 0.744,0.503 1.5,0.907 2.273,1.184"
           style="fill:#28907e;fill-opacity:1;fill-rule:nonzero;stroke:none"
           id="path23354"
           inkscape:connector-curvature="0" /><path
           d="m 112.497,414.113 c 5.271,-7.414 10.413,-12.374 12.133,-14.033 2.059,-1.98 5.922,-5.304 10.695,-9.248 l -1.009,25.408 z"
           style="fill:#f00700;fill-opacity:1;fill-rule:nonzero;stroke:none"
           id="path23356"
           inkscape:connector-curvature="0" /><path
           d="m 134.316,416.24 1.009,-25.408 c 12.189,-10.077 30.321,-24.214 39.554,-30.432 l 14.112,26.911 z"
           style="fill:#f33a00;fill-opacity:1;fill-rule:nonzero;stroke:none"
           id="path23358"
           inkscape:connector-curvature="0" /><path
           d="m 349.154,300.154 c 0.19,1.148 0.395,2.178 0.619,3.06 1.625,6.413 10.012,49.39 23.243,58.369 l 9.869,48.458 c -1.127,-10e-4 -2.217,-0.023 -3.266,-0.064 l -59.58,-73.87 z"
           style="fill:#7bb381;fill-opacity:1;fill-rule:nonzero;stroke:none"
           id="path23360"
           inkscape:connector-curvature="0" /><path
           d="m 490.41,349.346 46.969,-4.046 c -1.068,2.09 -2.322,4.038 -3.717,5.703 -2.91,3.475 -14.127,11.906 -25.547,19.809 l -22.094,-18.247 c 1.395,-1.018 2.87,-2.099 4.389,-3.219"
           style="fill:#145066;fill-opacity:1;fill-rule:nonzero;stroke:none"
           id="path23362"
           inkscape:connector-curvature="0" /><path
           d="M 188.991,387.311 174.879,360.4 c 2.086,-1.404 3.719,-2.405 4.725,-2.863 7.202,-3.276 31.414,-25.532 35.341,-31.413 2.161,-3.239 6.406,-11.242 9.728,-23.567 l 4.818,0.571 z"
           style="fill:#fc5e00;fill-opacity:1;fill-rule:nonzero;stroke:none"
           id="path23364"
           inkscape:connector-curvature="0" /><path
           d="m 295.738,259.445 24.301,76.662 -90.548,-32.979 z"
           style="fill:#f0cc0e;fill-opacity:1;fill-rule:nonzero;stroke:none"
           id="path23366"
           inkscape:connector-curvature="0" /><path
           d="m 464.521,236.781 c -6.75,-0.939 -13.775,-3.17 -20.505,-4.248 -2.149,-0.342 -4.256,-0.711 -6.338,-1.099 l 23.244,-16.829 z"
           style="fill:#45997f;fill-opacity:1;fill-rule:nonzero;stroke:none"
           id="path23368"
           inkscape:connector-curvature="0" /><path
           d="m 515.35,330.702 c -2.93,-0.088 -8.475,-1.138 -13.936,-2.488 l 4.492,-5.286 c 0.403,0.006 0.434,-0.063 0.164,-0.194 l 32.578,-38.338 c 1.176,-0.333 2.334,-0.218 3.518,0.489 3.189,1.92 -9.395,14.643 -10.699,20.541 -1.321,5.9 7.269,14.319 9.224,20.852 1.487,4.935 -0.046,12.636 -3.312,19.022 l -46.969,4.046 c 11.293,-8.323 24.94,-18.644 24.94,-18.644"
           style="fill:#144567;fill-opacity:1;fill-rule:nonzero;stroke:none"
           id="path23370"
           inkscape:connector-curvature="0" /><path
           d="m 504.871,322.848 c 0.471,0.052 0.809,0.077 1.035,0.08 l -4.492,5.286 c -13.752,-3.398 -26.969,-8.704 3.457,-5.366"
           style="fill:#155d6f;fill-opacity:1;fill-rule:nonzero;stroke:none"
           id="path23372"
           inkscape:connector-curvature="0" /><path
           d="m 481.311,314.343 c -1.87,-1.801 0.275,-2.983 2.127,-2.572 37.261,8.419 -7.581,-3.396 -2.178,-7.441 0.822,-0.619 1.199,-2.179 6.824,0.359 11.695,5.265 23.441,4.698 27.916,1.148 0,0 7.854,-7.03 13.084,-12.929 3.711,-4.185 6.689,-7.695 9.564,-8.512 l -32.578,38.338 c -2.076,-1.013 -22.033,-5.735 -24.759,-8.391"
           style="fill:#155d6f;fill-opacity:1;fill-rule:nonzero;stroke:none"
           id="path23374"
           inkscape:connector-curvature="0" /><path
           d="m 498.918,220.201 c -3.287,6.555 -11.959,12.508 -20.23,15.608 -4.424,1.66 -9.221,1.662 -14.167,0.972 l -3.599,-22.176 z"
           style="fill:#155d6f;fill-opacity:1;fill-rule:nonzero;stroke:none"
           id="path23376"
           inkscape:connector-curvature="0" /><path
           d="m 460.922,214.605 -23.244,16.829 c -11.908,-2.229 -22.914,-5.143 -35.108,-7.538 l 12.643,-18.546 z"
           style="fill:#9fc76d;fill-opacity:1;fill-rule:nonzero;stroke:none"
           id="path23378"
           inkscape:connector-curvature="0" /><path
           d="m 224.673,302.557 c 0.655,-2.427 1.273,-5.02 1.832,-7.778 l 2.986,8.349 z"
           style="fill:#ff6500;fill-opacity:1;fill-rule:nonzero;stroke:none"
           id="path23380"
           inkscape:connector-curvature="0" /><path
           d="m 295.738,259.445 51.971,24.543 c 0.303,6.248 0.76,12.002 1.445,16.166 l -29.115,35.953 z"
           style="fill:#cbcf4d;fill-opacity:1;fill-rule:nonzero;stroke:none"
           id="path23382"
           inkscape:connector-curvature="0" /><path
           d="m 542.859,19.965 c 1.301,-0.037 2.604,-0.078 3.903,-0.127 2.343,-0.088 4.504,-0.15 6.506,-0.19 l -0.303,21.12 c -5.004,2.322 -10.289,4.541 -15.297,6.365 l -0.086,-0.604 z"
           style="fill:#c54100;fill-opacity:1;fill-rule:nonzero;stroke:none"
           id="path23384"
           inkscape:connector-curvature="0" /><path
           d="m 229.491,303.128 -2.986,-8.349 c 1.763,-8.685 2.944,-18.996 2.827,-30.832 -0.023,-2.603 -0.258,-5.197 -0.662,-7.761 l 67.068,3.259 z"
           style="fill:#ffb600;fill-opacity:1;fill-rule:nonzero;stroke:none"
           id="path23386"
           inkscape:connector-curvature="0" /><path
           d="m 324.957,170.346 22.168,79.039 c -0.018,7.701 -0.021,22.135 0.584,34.603 l -51.971,-24.543 z"
           style="fill:#ecd422;fill-opacity:1;fill-rule:nonzero;stroke:none"
           id="path23388"
           inkscape:connector-curvature="0" /><path
           d="m 415.213,205.35 -12.643,18.546 c -2.076,-0.406 -4.187,-0.798 -6.343,-1.171 -7.735,-1.354 -46.454,-17.028 -46.454,-17.028 0,0 -2.64,31.414 -2.64,39.92 0,0.934 -0.004,2.213 -0.008,3.768 l -22.168,-79.039 z"
           style="fill:#d9d153;fill-opacity:1;fill-rule:nonzero;stroke:none"
           id="path23390"
           inkscape:connector-curvature="0" /><path
           d="m 501.518,183.477 c -0.727,14.298 -1.225,27.666 -1.225,31.394 0,1.791 -0.498,3.582 -1.375,5.33 l -37.996,-5.596 z"
           style="fill:#808c56;fill-opacity:1;fill-rule:nonzero;stroke:none"
           id="path23392"
           inkscape:connector-curvature="0" /><path
           d="m 324.957,170.346 -99.022,74.838 c -5.422,-16.262 -15.617,-29.588 -17.523,-32.936 -0.623,-1.088 -2.531,-3.906 -5.103,-7.615 l -11.715,-65.242 z"
           style="fill:#ffad00;fill-opacity:1;fill-rule:nonzero;stroke:none"
           id="path23394"
           inkscape:connector-curvature="0" /><path
           d="m 295.738,259.445 -67.068,-3.259 c -0.593,-3.758 -1.55,-7.45 -2.735,-11.002 l 99.022,-74.838 z"
           style="fill:#ffc900;fill-opacity:1;fill-rule:nonzero;stroke:none"
           id="path23396"
           inkscape:connector-curvature="0" /><path
           d="m 203.309,204.633 c -6.995,-10.086 -18.915,-26.758 -23.386,-33.192 l 11.671,-32.05 z"
           style="fill:#ff7900;fill-opacity:1;fill-rule:nonzero;stroke:none"
           id="path23398"
           inkscape:connector-curvature="0" /><path
           d="m 179.923,171.441 c -0.806,-1.16 -1.374,-1.994 -1.622,-2.386 -3.825,-6.063 -8.976,-15.84 -14.389,-26.725 l 27.682,-2.939 z"
           style="fill:#ff6f00;fill-opacity:1;fill-rule:nonzero;stroke:none"
           id="path23400"
           inkscape:connector-curvature="0" /><path
           d="m 415.213,205.35 -90.256,-35.004 83.893,-8.969 z"
           style="fill:#dfcf19;fill-opacity:1;fill-rule:nonzero;stroke:none"
           id="path23402"
           inkscape:connector-curvature="0" /><path
           d="m 471.625,146.045 32.586,-0.354 c -0.94,7.112 -1.94,22.95 -2.693,37.786 l -40.596,31.128 z"
           style="fill:#9fab35;fill-opacity:1;fill-rule:nonzero;stroke:none"
           id="path23404"
           inkscape:connector-curvature="0" /><path
           d="M 460.922,214.605 415.213,205.35 408.85,161.377 Z"
           style="fill:#aac634;fill-opacity:1;fill-rule:nonzero;stroke:none"
           id="path23406"
           inkscape:connector-curvature="0" /><path
           d="m 460.922,214.605 -52.072,-53.228 15.613,-3.813 c 15.875,12.582 31.967,26.545 31.967,26.545 0,0 -1.303,-1.972 -6.534,-19.632 -1.21,-4.094 -1.404,-8.471 -0.919,-12.901 l 22.648,-5.531 z"
           style="fill:#aebe24;fill-opacity:1;fill-rule:nonzero;stroke:none"
           id="path23408"
           inkscape:connector-curvature="0" /><path
           d="m 191.594,139.391 50.339,-31.77 c 9.881,11.051 16.858,21.514 16.858,21.514 0,0 3.84,1.166 13.1,-3.926 8.386,-4.625 24.413,-6.715 38.259,-7.541 l 14.807,52.678 z"
           style="fill:#ffaa00;fill-opacity:1;fill-rule:nonzero;stroke:none"
           id="path23410"
           inkscape:connector-curvature="0" /><path
           d="m 362.521,124.436 c 15.116,5.142 29.872,11.662 35.676,14.525 2.557,1.256 6.065,3.51 10.094,6.359 l 0.559,16.057 z"
           style="fill:#ffac00;fill-opacity:1;fill-rule:nonzero;stroke:none"
           id="path23412"
           inkscape:connector-curvature="0" /><path
           d="M 324.957,170.346 310.15,117.668 c 9.766,-0.584 18.448,-0.539 22.596,-0.313 8.031,0.442 18.994,3.411 29.775,7.081 l 46.329,36.941 z"
           style="fill:#ffc200;fill-opacity:1;fill-rule:nonzero;stroke:none"
           id="path23414"
           inkscape:connector-curvature="0" /><path
           d="m 128.115,85.949 c -2.487,1.602 -5.344,3.145 -8.063,3.918 -15.055,4.254 -24.229,-5.898 -21.589,-1.318 2.607,4.594 -3.293,13.426 -10.494,12.447 -2.03,-0.281 -4.061,-0.621 -6.046,-1.162 L 131.422,58.68 Z"
           style="fill:#ff4400;fill-opacity:1;fill-rule:nonzero;stroke:none"
           id="path23416"
           inkscape:connector-curvature="0" /><path
           d="m 448.977,151.576 c 1.013,-9.293 5.007,-18.822 8.822,-26.48 l 13.826,20.949 z"
           style="fill:#dbbb01;fill-opacity:1;fill-rule:nonzero;stroke:none"
           id="path23418"
           inkscape:connector-curvature="0" /><path
           d="m 408.291,145.32 c 4.871,3.442 10.506,7.754 16.172,12.244 l -15.613,3.813 z"
           style="fill:#dbbb01;fill-opacity:1;fill-rule:nonzero;stroke:none"
           id="path23420"
           inkscape:connector-curvature="0" /><path
           d="m 207.458,76.98 c 7.022,5.975 13.407,11.301 17.964,14.842 5.892,4.588 11.565,10.266 16.511,15.799 l -50.339,31.77 z"
           style="fill:#ff8e00;fill-opacity:1;fill-rule:nonzero;stroke:none"
           id="path23422"
           inkscape:connector-curvature="0" /><path
           d="m 81.923,99.834 c -3.443,-0.939 -6.745,-2.482 -9.661,-5.389 -4.56,-4.578 -10.46,-17.66 -18.313,-26.183 -7.854,-8.504 -9.157,-11.78 -7.854,-17.01 0.19,-0.76 0.642,-1.465 1.301,-2.109 l 84.026,9.537 z"
           style="fill:#ff3800;fill-opacity:1;fill-rule:nonzero;stroke:none"
           id="path23424"
           inkscape:connector-curvature="0" /><path
           d="m 509.346,89.133 c -1.319,21.441 -3.262,49.871 -4.475,53.086 -0.213,0.57 -0.435,1.771 -0.66,3.472 l -32.586,0.354 z"
           style="fill:#c99527;fill-opacity:1;fill-rule:nonzero;stroke:none"
           id="path23426"
           inkscape:connector-curvature="0" /><path
           d="m 537.668,47.133 c -0.213,0.076 -0.424,0.152 -0.637,0.228 l 0.551,-0.832 z"
           style="fill:#c99527;fill-opacity:1;fill-rule:nonzero;stroke:none"
           id="path23428"
           inkscape:connector-curvature="0" /><path
           d="m 469.789,97.293 c 4.488,-14.777 8.899,-33.572 8.899,-38.84 0,-7.312 -5.68,-25.971 -5.395,-33.265 l 64.289,21.341 -0.551,0.832 c -3.775,1.356 -7.381,2.479 -10.57,3.241 -9.69,2.314 -15.707,14.386 -15.707,14.386 0,0 -0.582,10.698 -1.408,24.145 l -37.721,56.912 z"
           style="fill:#d68e00;fill-opacity:1;fill-rule:nonzero;stroke:none"
           id="path23430"
           inkscape:connector-curvature="0" /><path
           d="m 457.799,125.096 c 2.209,-4.438 4.359,-8.246 5.834,-11.016 1.728,-3.238 3.951,-9.527 6.156,-16.787 l 1.836,48.752 z"
           style="fill:#e79b00;fill-opacity:1;fill-rule:nonzero;stroke:none"
           id="path23432"
           inkscape:connector-curvature="0" /><path
           d="m 191.594,139.391 -27.682,2.939 c -13.589,-27.328 -28.823,-61.637 -28.823,-61.637 0,0 -3.015,2.705 -6.974,5.256 l 3.307,-27.269 z"
           style="fill:#ff6100;fill-opacity:1;fill-rule:nonzero;stroke:none"
           id="path23434"
           inkscape:connector-curvature="0" /><path
           d="m 131.422,58.68 36.227,-15.92 c 9.699,8.172 25.989,22.457 39.809,34.22 l -15.864,62.411 z"
           style="fill:#ff7000;fill-opacity:1;fill-rule:nonzero;stroke:none"
           id="path23436"
           inkscape:connector-curvature="0" /><path
           d="m 47.396,49.143 c 3.876,-3.795 14.983,-5.539 22.911,-4.442 9.5,1.32 11.78,9.174 21.606,9.174 5.893,0 15.334,-7.797 25.337,-14.166 l 14.172,18.971 z"
           style="fill:#ff2b00;fill-opacity:1;fill-rule:nonzero;stroke:none"
           id="path23438"
           inkscape:connector-curvature="0" /><path
           d="m 117.25,39.709 c 4.682,-2.98 9.488,-5.645 14.111,-7.053 l 0.061,26.024 z"
           style="fill:#ff2a00;fill-opacity:1;fill-rule:nonzero;stroke:none"
           id="path23440"
           inkscape:connector-curvature="0" /><path
           d="m 131.361,32.656 c 1.939,-0.59 3.847,-0.961 5.701,-1.039 15.707,-0.65 18.982,3.276 22.258,4.58 0.768,0.311 3.844,2.782 8.329,6.563 l -36.227,15.92 z"
           style="fill:#ff5300;fill-opacity:1;fill-rule:nonzero;stroke:none"
           id="path23442"
           inkscape:connector-curvature="0" /><path
           d="m 473.293,25.188 c 0.021,-0.538 0.074,-1.018 0.164,-1.422 1.256,-5.682 35.301,-2.838 69.402,-3.801 l -5.277,26.564 z"
           style="fill:#d02c00;fill-opacity:1;fill-rule:nonzero;stroke:none"
           id="path23444"
           inkscape:connector-curvature="0" /></g></g></g></svg>