<?xml version="1.0" encoding="UTF-8" standalone="no"?>
<!-- Created with Inkscape (http://www.inkscape.org/) -->

<svg
   version="1.1"
   id="svg56428"
   xml:space="preserve"
   width="1066.6667"
   height="1066.6667"
   viewBox="0 0 1066.6667 1066.6667"
   sodipodi:docname="ice-skater-vector-publicdomainvectors.org.svg"
   inkscape:version="1.1.2 (b8e25be833, 2022-02-05)"
   xmlns:inkscape="http://www.inkscape.org/namespaces/inkscape"
   xmlns:sodipodi="http://sodipodi.sourceforge.net/DTD/sodipodi-0.dtd"
   xmlns="http://www.w3.org/2000/svg"
   xmlns:svg="http://www.w3.org/2000/svg"><defs
     id="defs56432"><clipPath
       clipPathUnits="userSpaceOnUse"
       id="clipPath56442"><path
         d="M 0,800 H 800 V 0 H 0 Z"
         id="path56440" /></clipPath></defs><sodipodi:namedview
     id="namedview56430"
     pagecolor="#ffffff"
     bordercolor="#666666"
     borderopacity="1.0"
     inkscape:pageshadow="2"
     inkscape:pageopacity="0.0"
     inkscape:pagecheckerboard="0"
     showgrid="false"
     inkscape:zoom="0.77906244"
     inkscape:cx="533.33337"
     inkscape:cy="533.33337"
     inkscape:window-width="1920"
     inkscape:window-height="1018"
     inkscape:window-x="-8"
     inkscape:window-y="-8"
     inkscape:window-maximized="1"
     inkscape:current-layer="g56434" /><g
     id="g56434"
     inkscape:groupmode="layer"
     inkscape:label="ice-skater-vector-publicdomainvectors.org"
     transform="matrix(1.3333333,0,0,-1.3333333,0,1066.6667)"><g
       id="g56436"><g
         id="g56438"
         clip-path="url(#clipPath56442)"><path
           d="m 638.285,558.233 c 0.325,5.323 0.693,10.648 2.179,15.824 1.978,6.907 5.755,12.922 9.578,18.897 4.391,6.868 8.854,13.702 10.705,21.817 0.232,1.012 0.879,1.199 1.772,1.345 3.97,0.626 7.994,0.08 11.963,0.753 5.49,0.939 8.607,5.002 7.754,10.518 -0.333,2.145 -0.919,4.263 -1.479,6.382 -1.026,3.863 -2.011,7.713 -2.025,11.77 -0.013,2.471 0.787,4.104 3.138,5.155 2.645,1.186 3.151,3.251 1.679,5.756 -0.959,1.638 -2.217,3.014 -3.582,4.289 L 630.853,559.764 Z"
           style="fill:#ff4068;fill-opacity:1;fill-rule:nonzero;stroke:none"
           id="path56444" /><path
           d="m 635.782,540.606 c 1.204,4.634 1.982,9.506 2.317,14.625 0.065,1 0.125,2.001 0.186,3.002 l -7.432,1.531 z"
           style="fill:#ff7294;fill-opacity:1;fill-rule:nonzero;stroke:none"
           id="path56446" /><path
           d="m 659.935,693.014 9.276,-13.273 c -1.875,5.363 -4.982,9.778 -9.276,13.273"
           style="fill:#fc0033;fill-opacity:1;fill-rule:nonzero;stroke:none"
           id="path56448" /><path
           d="m 533.27,134.877 c -3.324,-0.354 -6.634,-0.819 -9.946,-1.272 l -27.154,-9.482 c 18.591,-0.172 37.179,0.101 55.758,1.382 6.781,0.473 13.536,1.179 19.977,3.563 0.993,0.369 1.961,0.776 2.895,1.232 l -39.872,4.807 c -0.356,-0.093 -0.895,-0.15 -1.658,-0.23"
           style="fill:#5e3fc9;fill-opacity:1;fill-rule:nonzero;stroke:none"
           id="path56450" /><path
           d="m 679.967,660.739 c -0.525,0.49 -1.064,0.967 -1.611,1.436 L 575.489,635.134 c -0.024,-0.225 -0.049,-0.448 -0.074,-0.673 -0.478,-4.184 1.506,-6.701 4.837,-8.607 2.045,-1.166 4.269,-1.891 6.487,-2.611 2.512,-0.812 5.037,-1.572 7.455,-2.65 1.392,-0.627 1.439,-1.173 0.393,-2.233 -2.864,-2.917 -6.201,-5.109 -10.072,-6.307 -4.111,-1.282 -8.098,-1.861 -11.91,-1.517 l 58.248,-50.772 z"
           style="fill:#ff415b;fill-opacity:1;fill-rule:nonzero;stroke:none"
           id="path56452" /><path
           d="m 556.389,624.672 c -0.395,1.071 -0.788,2.14 -1.011,3.248 -0.131,0.656 -0.315,1.249 -0.545,1.784 l -3.24,-0.851 z"
           style="fill:#ff415b;fill-opacity:1;fill-rule:nonzero;stroke:none"
           id="path56454" /><path
           d="m 678.066,662.425 c -2.018,1.705 -4.049,3.404 -5.675,5.515 -0.705,0.907 -1.179,1.866 -1.299,3.065 -0.315,3.152 -0.946,6.061 -1.881,8.736 l -9.276,13.273 c -2.916,2.373 -6.379,4.323 -10.372,5.862 -7.587,2.918 -15.575,4.343 -23.561,5.169 -7.607,0.793 -15.009,-0.88 -20.97,-6.088 -12.723,-11.125 -20.411,-24.687 -19.538,-42.153 0.047,-1.013 -0.173,-1.625 -1.239,-2.059 -3.277,-1.318 -5.276,-3.909 -6.561,-7.106 -1.487,-3.693 -1.783,-7.599 -2.205,-11.505 l 102.867,27.041 c -0.096,0.083 -0.193,0.167 -0.29,0.25"
           style="fill:#ff1741;fill-opacity:1;fill-rule:nonzero;stroke:none"
           id="path56456" /><path
           d="m 554.833,629.704 c -0.439,1.017 -1.056,1.818 -1.818,2.435 l -1.422,-3.286 z"
           style="fill:#ff1741;fill-opacity:1;fill-rule:nonzero;stroke:none"
           id="path56458" /><path
           d="m 543.841,139.034 c 1.931,2.038 8.008,2.478 10.205,0.706 1.346,-1.072 0.533,-2.339 0.133,-3.483 -0.379,-1.1 -1.239,-1.393 -2.365,-0.98 -1.898,0.706 -3.737,1.613 -5.788,1.812 -0.453,0.04 -0.906,0.007 -1.359,0.007 -0.533,0.153 -1.279,-0.601 -1.599,0.179 -0.273,0.666 0.306,1.266 0.773,1.759 m -9.325,-1.558 c 1.015,-1.671 1.294,-2.137 0.412,-2.369 L 574.8,130.3 c 2.782,1.36 5.263,3.167 7.203,5.75 1.553,2.071 1.26,4.157 -0.893,5.582 -1.058,0.706 -2.284,1.159 -3.416,1.759 -2.412,1.265 -2.492,1.572 -1.266,3.943 1.559,3.011 3.317,5.955 3.711,9.419 0.352,3.131 -0.767,4.942 -3.778,5.768 -2.764,0.76 -5.595,1.24 -8.38,1.907 -6.115,1.459 -12.169,3.19 -17.345,6.874 -4.941,3.517 -9.657,7.351 -14.432,11.095 l -5.786,-40.239 c 1.582,-1.293 2.971,-2.827 4.098,-4.682"
           style="fill:#6550ce;fill-opacity:1;fill-rule:nonzero;stroke:none"
           id="path56460" /><path
           d="m 607.087,499.644 c 0.004,0.002 0.007,0.004 0.01,0.006 14.571,10.832 24.37,24.359 28.685,40.956 l -4.929,19.158 z"
           style="fill:#ff95a7;fill-opacity:1;fill-rule:nonzero;stroke:none"
           id="path56462" /><path
           d="m 553.015,632.139 c -0.543,0.438 -1.161,0.782 -1.844,1.039 l 0.422,-4.325 z"
           style="fill:#ff1038;fill-opacity:1;fill-rule:nonzero;stroke:none"
           id="path56464" /><path
           d="m 516.522,562.569 39.65,-88.362 c 4.471,1.366 8.877,3.018 13.209,5 13.025,5.959 26.132,11.834 37.706,20.437 l 23.766,60.12 z"
           style="fill:#ff989a;fill-opacity:1;fill-rule:nonzero;stroke:none"
           id="path56466" /><path
           d="m 630.853,559.764 -58.248,50.772 c -4.99,0.45 -9.676,2.485 -13.936,6.612 -0.473,0.46 -1.199,0.914 -1.119,1.619 0.229,2.128 -0.467,4.02 -1.161,5.905 l -4.796,4.181 -13.328,-25.192 c 7.141,-4.613 12.103,-11.532 15.981,-19.605 0.526,-1.1 0.314,-1.553 -0.76,-2.019 -5.528,-2.432 -10.684,-5.602 -16.113,-8.227 -6.591,-3.183 -13.08,-6.622 -19.865,-9.378 l -0.986,-1.863 z"
           style="fill:#ff6a6c;fill-opacity:1;fill-rule:nonzero;stroke:none"
           id="path56468" /><path
           d="m 414.468,513.471 39.979,-109.771 23.238,59.471 c -0.104,1.645 -0.067,3.308 0.156,4.998 0.2,1.465 0.666,1.958 2.285,1.824 0.072,-0.006 0.145,-0.012 0.218,-0.016 l 36.178,92.592 z"
           style="fill:#ffb4a2;fill-opacity:1;fill-rule:nonzero;stroke:none"
           id="path56470" /><path
           d="m 524.13,145.828 c 2.3,-0.965 4.429,-2.149 6.288,-3.67 l 5.786,40.239 c -0.034,0.028 -0.068,0.055 -0.103,0.082 -4.704,3.691 -9.153,7.64 -13.043,12.204 -1.212,1.424 -1.958,3.004 -2.378,4.796 -1.046,4.515 -1.206,9.119 -1.312,13.721 -0.1,4.384 -0.254,8.754 -1.014,13.083 -0.272,1.536 -0.586,2.396 -1.275,2.869 l -40.881,-20.44 c 1.149,-3.565 1.816,-7.104 1.836,-10.636 l 41.879,-50.707 c 1.422,-0.451 2.829,-0.958 4.217,-1.541"
           style="fill:#846fd9;fill-opacity:1;fill-rule:nonzero;stroke:none"
           id="path56472" /><path
           d="m 481.88,381.574 c -0.051,9.132 0.531,18.248 1.797,27.358 l -29.23,-5.232 z"
           style="fill:#f9b2e0;fill-opacity:1;fill-rule:nonzero;stroke:none"
           id="path56474" /><path
           d="m 483.677,408.932 c 0.152,1.098 0.312,2.197 0.485,3.296 1.326,8.432 1.806,16.959 0.293,25.472 -0.952,5.368 -3.058,10.399 -4.709,15.561 -1.047,3.26 -1.85,6.547 -2.061,9.91 L 454.447,403.7 Z"
           style="fill:#ffb1ad;fill-opacity:1;fill-rule:nonzero;stroke:none"
           id="path56476" /><path
           d="m 480.344,469.977 c 14.529,-1.189 29.078,-1.898 43.66,-1.142 10.997,0.568 21.759,2.191 32.168,5.372 l -39.65,88.362 z"
           style="fill:#ffb1ad;fill-opacity:1;fill-rule:nonzero;stroke:none"
           id="path56478" /><path
           d="m 514.278,229.694 c -1.652,0.027 -3.317,-0.092 -4.975,-0.113 -3.538,-0.033 -3.957,0.287 -4.909,3.63 -1.59,5.552 -2.958,11.151 -4.212,16.777 L 475.046,211.95 c 0.205,-0.543 0.406,-1.087 0.603,-1.634 0.194,-0.535 0.376,-1.07 0.549,-1.604 l 40.881,20.44 c -0.588,0.407 -1.449,0.53 -2.801,0.542"
           style="fill:#a588e2;fill-opacity:1;fill-rule:nonzero;stroke:none"
           id="path56480" /><path
           d="m 495.308,273.805 c -2.632,13.23 -4.623,26.612 -9.14,39.395 -2.798,7.953 -3.751,16.101 -3.225,24.5 0.048,0.745 0.091,1.489 0.134,2.235 l -49.436,10.068 c 2.088,-9.94 2.877,-20.057 3.693,-30.168 0.905,-11.204 1.725,-22.422 4.097,-33.446 2.011,-9.367 4.809,-18.353 11.457,-25.701 3.01,-3.33 4.749,-7.506 6.221,-11.729 3.171,-9.046 7.095,-17.772 11.325,-26.365 1.714,-3.476 3.247,-7.023 4.612,-10.644 l 25.136,38.038 c -1.762,7.908 -3.294,15.868 -4.874,23.817"
           style="fill:#cfa2ec;fill-opacity:1;fill-rule:nonzero;stroke:none"
           id="path56482" /><path
           d="m 551.171,633.178 c -0.522,0.196 -1.08,0.343 -1.674,0.444 -6.188,1.026 -10.419,4.782 -14.223,9.325 -2.81,3.358 -5.381,6.915 -8.472,10.032 -6.129,6.209 -13.484,6.675 -21.39,4.604 -1.306,-0.34 -1.766,-1.087 -1.658,-2.472 0.293,-3.904 2.118,-7.041 4.729,-9.778 2.239,-2.339 4.636,-4.53 6.874,-6.882 1.419,-1.485 2.439,-3.23 2.372,-5.875 -2.318,1.419 -4.291,2.645 -6.275,3.837 -2.598,1.552 -5.202,3.091 -8.2,3.73 -1.513,0.327 -3.551,1.127 -4.377,-0.326 -0.766,-1.359 0.32,-3.171 1.346,-4.53 1.706,-2.278 4.131,-3.564 6.728,-4.384 2.601,-0.828 4.861,-2.039 6.861,-3.551 l 37.781,1.501 z"
           style="fill:#ff3444;fill-opacity:1;fill-rule:nonzero;stroke:none"
           id="path56484" /><path
           d="m 517.508,564.432 c -0.863,-0.351 -1.733,-0.687 -2.607,-1.013 l 1.621,-0.85 z"
           style="fill:#ff675f;fill-opacity:1;fill-rule:nonzero;stroke:none"
           id="path56486" /><path
           d="m 513.812,627.352 c 2.938,-2.223 5.312,-5.101 7.341,-8.418 1.885,-3.091 3.837,-6.142 5.769,-9.2 0.532,-0.833 1.118,-1.551 2.164,-1.865 3.418,-1.023 6.456,-2.449 9.179,-4.208 l 13.328,25.192 z"
           style="fill:#ff675f;fill-opacity:1;fill-rule:nonzero;stroke:none"
           id="path56488" /><path
           d="m 482.903,362.354 c -0.643,6.417 -0.987,12.822 -1.023,19.22 L 454.447,403.7 422.428,377.77 c 1.694,-3.879 3.575,-7.694 5.693,-11.426 1.972,-3.471 3.284,-7.261 4.304,-11.151 0.451,-1.724 0.85,-3.455 1.216,-5.19 l 49.436,-10.068 c 0.424,7.465 0.577,14.951 -0.174,22.419"
           style="fill:#fab5ef;fill-opacity:1;fill-rule:nonzero;stroke:none"
           id="path56490" /><path
           d="m 465.238,124.726 c 10.311,-0.277 20.622,-0.507 30.932,-0.603 l 27.154,9.482 c -5.047,-0.687 -10.097,-1.34 -15.201,-1.505 -0.532,-0.02 -1.053,-0.046 -1.585,-0.074 -3.69,0.021 -7.388,0.093 -10.977,1.146 -2.265,0.653 -4.377,1.619 -6.103,3.277 -0.426,0.406 -1.093,0.786 -0.839,1.473 0.253,0.672 0.933,0.973 1.639,1.045 1.811,0.207 3.61,0.013 5.409,-0.173 2.771,-0.273 2.864,-0.227 2.777,2.465 -0.113,3.29 0.953,6.388 1.379,9.593 0.107,0.725 0.467,0.772 1.106,0.638 6.347,-1.289 12.801,-2.164 18.984,-4.121 l -41.879,50.707 c 0.025,-4.182 -0.859,-8.355 -2.93,-12.547 -3.205,-6.474 -4.083,-13.502 -3.857,-20.703 0.213,-6.954 1.298,-13.821 1.745,-20.749 0.253,-3.99 0.267,-3.99 3.977,-4.936 2.651,-0.68 3.377,-2.212 2.231,-4.69 -0.693,-1.492 -1.959,-2.231 -3.443,-2.711 -2.392,-0.766 -4.903,-0.819 -7.335,-1.34 -1.367,-0.291 -2.722,-0.626 -3.802,-1.481 l -0.365,-4.238 c 0.336,0.012 0.683,0.054 0.983,0.045"
           style="fill:#7f5cd4;fill-opacity:1;fill-rule:nonzero;stroke:none"
           id="path56492" /><path
           d="m 516.522,562.569 -1.621,0.85 c -1.441,-0.539 -2.897,-1.047 -4.373,-1.506 -8.041,-2.498 -15.487,-1.612 -21.916,4.376 -4.776,4.45 -10.538,7.248 -16.62,9.42 -20.743,7.414 -42.305,9.605 -64.121,9.565 -0.64,-10e-4 -1.279,-0.003 -1.918,-0.004 l 8.515,-71.799 z"
           style="fill:#ff8672;fill-opacity:1;fill-rule:nonzero;stroke:none"
           id="path56494" /><path
           d="m 414.468,513.471 -33.454,-50.735 c 0.217,-0.749 0.588,-1.486 1.09,-2.221 2.286,-3.318 4.843,-6.389 7.848,-9.039 4.024,-3.544 8.113,-7.001 12.231,-10.432 1.264,-1.06 2.084,-2.259 2.584,-3.851 1.99,-6.413 3.709,-12.902 5.291,-19.422 L 454.447,403.7 Z"
           style="fill:#ffc2b6;fill-opacity:1;fill-rule:nonzero;stroke:none"
           id="path56496" /><path
           d="m 464.255,124.681 0.365,4.238 c -0.331,-0.261 -0.637,-0.569 -0.908,-0.942 -0.592,-0.814 -1.111,-1.853 -0.759,-2.732 0.209,-0.525 0.738,-0.586 1.302,-0.564"
           style="fill:#965fd5;fill-opacity:1;fill-rule:nonzero;stroke:none"
           id="path56498" /><path
           d="m 414.468,513.471 -8.515,71.799 c -7.8,-0.023 -15.587,-0.09 -23.36,0.267 l -25.992,-51.375 z"
           style="fill:#ff8d73;fill-opacity:1;fill-rule:nonzero;stroke:none"
           id="path56500" /><path
           d="m 410.058,417.771 c 0.175,-0.726 0.351,-1.453 0.524,-2.18 3.079,-12.92 6.546,-25.692 11.846,-37.821 l 32.019,25.93 z"
           style="fill:#ffc5d7;fill-opacity:1;fill-rule:nonzero;stroke:none"
           id="path56502" /><path
           d="m 382.593,585.537 c -5.136,0.236 -10.266,0.657 -15.39,1.402 -6.592,0.96 -13.133,2.104 -19.614,3.48 l 9.012,-56.257 z"
           style="fill:#ff7759;fill-opacity:1;fill-rule:nonzero;stroke:none"
           id="path56504" /><path
           d="m 356.601,534.162 0.803,-16.518 c 0.509,-0.424 1.014,-0.855 1.513,-1.294 1.112,-0.98 1.646,-1.958 1.625,-3.471 -0.086,-5.436 -0.054,-10.864 -0.406,-16.293 -0.746,-11.311 2.265,-16.107 12.59,-20.564 1.179,-0.505 2.338,-1.059 3.463,-1.671 1.747,-0.933 3.185,-2.239 4.477,-3.758 1.046,-1.226 1.393,-2.384 0.687,-3.904 -0.634,-1.376 -0.709,-2.679 -0.339,-3.953 l 33.454,50.735 z"
           style="fill:#ffb89e;fill-opacity:1;fill-rule:nonzero;stroke:none"
           id="path56506" /><path
           d="m 279.611,627.639 c -0.679,0.737 -1.361,1.473 -2.035,2.213 -4.309,4.762 -9.272,8.552 -15.44,10.724 -5.477,1.932 -10.805,4.257 -16.235,6.295 -5.255,1.97 -10.536,3.863 -15.833,5.713 l -4.981,-7.249 z"
           style="fill:#ff3707;fill-opacity:1;fill-rule:nonzero;stroke:none"
           id="path56508" /><path
           d="m 230.068,652.584 c -1.847,0.645 -3.698,1.287 -5.548,1.923 l 0.567,-9.172 z"
           style="fill:#ff2c00;fill-opacity:1;fill-rule:nonzero;stroke:none"
           id="path56510" /><path
           d="m 315.807,541.486 c 0.01,-0.005 0.021,-0.01 0.032,-0.016 5.755,-2.985 11.537,-5.909 17.325,-8.84 5.348,-2.715 10.64,-5.521 15.665,-8.751 l 7.772,10.283 z"
           style="fill:#ffb357;fill-opacity:1;fill-rule:nonzero;stroke:none"
           id="path56512" /><path
           d="m 348.829,523.879 c 2.967,-1.907 5.841,-3.96 8.575,-6.235 l -0.803,16.518 z"
           style="fill:#ffc593;fill-opacity:1;fill-rule:nonzero;stroke:none"
           id="path56514" /><path
           d="m 347.589,590.419 c -8.986,1.909 -17.857,4.271 -26.585,7.24 l -50.707,-18.464 c 6.52,-5.57 12.856,-11.389 18.976,-17.503 7.918,-7.904 16.529,-15.004 26.534,-20.206 l 40.794,-7.324 z"
           style="fill:#ff873f;fill-opacity:1;fill-rule:nonzero;stroke:none"
           id="path56516" /><path
           d="m 314.213,600.103 c -11.391,4.335 -21.317,10.503 -28.63,20.516 -1.81,2.473 -3.884,4.755 -5.972,7.02 l -54.524,17.696 -3.262,-30.739 c 16.951,-10.726 33.221,-22.371 48.472,-35.401 l 50.707,18.464 c -2.274,0.774 -4.537,1.585 -6.791,2.444"
           style="fill:#ff6d13;fill-opacity:1;fill-rule:nonzero;stroke:none"
           id="path56518" /><path
           d="m 224.52,654.507 c -15.364,5.276 -30.826,10.268 -46.131,15.712 -1.545,0.547 -2.837,1.332 -4.01,2.438 -4.17,3.923 -7.301,8.659 -10.165,13.53 -0.186,0.314 -0.373,0.626 -0.563,0.935 L 134.61,652.19 c 1.473,-1.169 2.922,-2.372 4.398,-3.541 3.131,-2.491 6.267,-5.301 10.218,-6.074 4.019,-0.791 7.499,-1.975 9.67,-5.269 l 9.337,1.132 c 0.166,0.553 0.339,1.104 0.564,1.632 1.079,2.565 2.778,3.164 5.209,1.905 1.46,-0.761 2.912,-1.536 4.366,-2.307 l 46.715,5.667 z"
           style="fill:#ff3a00;fill-opacity:1;fill-rule:nonzero;stroke:none"
           id="path56520" /><path
           d="m 141.119,705.737 c -3.598,1.146 -6.973,3.025 -9.452,5.994 -1.625,1.959 -3.404,1.947 -5.436,1.147 -0.986,-0.387 -1.905,-0.919 -2.837,-1.419 -1.32,-0.713 -2.239,-0.446 -2.931,0.939 -1.306,2.585 -1.119,3.79 1.165,6.229 0.873,0.939 2.045,1.878 1.34,3.311 -0.76,1.518 -1.959,2.611 -3.851,2.717 -1.712,0.093 -3.138,-0.346 -4.656,-1.239 -2.081,-1.226 -4.17,-2.439 -6.261,-3.648 l 1.045,-9.21 c 1.427,0.433 2.731,0.027 4.01,-1.29 0.626,-0.653 1.14,-1.48 1.885,-1.932 1.839,-1.1 0.926,-1.912 -0.219,-2.585 -1.333,-0.779 -2.892,-0.913 -4.39,-0.832 -0.18,0.009 -0.356,0.01 -0.533,0.012 l 5.113,-45.045 c 1.769,-0.268 3.578,-0.363 5.438,-0.251 3.085,0.186 5.768,-0.793 8.347,-2.358 2.009,-1.222 3.88,-2.63 5.714,-4.087 l 29.041,34.932 c -5.367,8.774 -12.423,15.398 -22.532,18.615"
           style="fill:#ff2e00;fill-opacity:1;fill-rule:nonzero;stroke:none"
           id="path56522" /><path
           d="m 178.372,639.668 c 7.476,-3.965 14.879,-8.052 22.213,-12.268 7.179,-4.133 14.267,-8.391 21.24,-12.804 l 3.262,30.739 z"
           style="fill:#ff5700;fill-opacity:1;fill-rule:nonzero;stroke:none"
           id="path56524" /><path
           d="m 159.857,635.521 c 0.081,-0.194 0.307,-0.333 0.473,-0.48 2.772,-2.445 6.136,-1.619 7.401,1.817 0.189,0.519 0.343,1.051 0.502,1.58 l -9.337,-1.132 c 0.356,-0.538 0.68,-1.126 0.961,-1.785"
           style="fill:#ff5700;fill-opacity:1;fill-rule:nonzero;stroke:none"
           id="path56526" /><path
           d="m 99.906,699.688 c -2.072,-1.772 -3.81,-3.863 -5.589,-5.908 -1.779,-2.051 -3.55,-4.11 -5.655,-5.842 -2.332,-1.899 -4.903,-3.238 -7.675,-3.21 -3.13,-0.04 -3.743,0.798 -3.037,3.57 0.493,1.951 1.865,3.084 3.598,3.757 2.65,1.012 4.869,2.571 6.933,4.515 2.859,2.693 6.256,4.691 9.553,6.823 3.224,2.078 6.428,4.196 9.599,6.361 0.557,0.379 1.093,0.645 1.612,0.804 l -1.045,9.21 c -7.113,-4.114 -14.266,-8.163 -21.35,-12.332 -5.136,-3.031 -10.085,-6.389 -14.208,-10.772 -6.255,-6.647 -5.35,-12.189 2.81,-16.347 2.238,-1.132 4.144,-2.045 3.964,-5.048 -0.094,-1.433 0.926,-2.665 1.831,-3.804 0.847,-1.06 1.779,-2.072 2.458,-3.232 0.573,-0.985 1.187,-1.091 2.212,-0.879 4.037,0.86 7.967,0.387 11.711,-1.318 2.404,-1.093 4.769,-2.265 7.087,-3.524 3.326,-1.795 6.773,-3.078 10.396,-3.626 l -5.113,45.045 c -3.968,0.044 -7.165,-1.743 -10.092,-4.243"
           style="fill:#ff2100;fill-opacity:1;fill-rule:nonzero;stroke:none"
           id="path56528" /></g></g></g></svg>
